<svg id="svg" version="1.1" xmlns="http://www.w3.org/2000/svg" xmlns:xlink="http://www.w3.org/1999/xlink" width="400" height="400" viewBox="0, 0, 400,400"><g id="svgg"><path id="path0" d="M127.443 75.833 C 127.309 76.181,127.200 132.341,127.200 200.633 L 127.200 324.800 200.200 324.800 L 273.200 324.800 273.200 311.601 L 273.200 298.403 215.100 298.301 L 157.000 298.200 156.899 186.700 L 156.799 75.200 142.242 75.200 C 129.337 75.200,127.658 75.272,127.443 75.833 " stroke="none" fill="#fbfbfb" fill-rule="evenodd"></path><path id="path1" d="M126.899 200.100 L 127.000 325.000 200.200 325.000 L 273.400 325.000 273.408 311.700 L 273.416 298.400 273.303 311.600 L 273.189 324.800 200.193 324.800 L 127.196 324.800 127.298 200.000 C 127.354 131.360,127.265 75.200,127.099 75.200 C 126.934 75.200,126.844 131.405,126.899 200.100 M156.999 186.567 C 157.000 285.397,157.068 298.152,157.600 298.297 C 158.043 298.418,158.070 298.369,157.701 298.107 C 157.304 297.826,157.180 274.845,157.100 186.377 L 156.998 75.000 156.999 186.567 " stroke="none" fill="#8c8c94" fill-rule="evenodd"></path><path id="path2" d="M126.671 75.062 C 126.145 75.589,126.353 324.593,126.880 325.120 C 127.426 325.666,273.002 325.845,273.338 325.300 C 273.440 325.135,240.556 325.000,200.262 325.000 L 127.000 325.000 126.899 200.100 L 126.799 75.200 141.999 75.200 L 157.200 75.200 157.200 186.557 C 157.200 287.731,157.258 297.937,157.833 298.157 C 158.181 298.291,184.326 298.356,215.933 298.302 L 273.400 298.204 215.600 298.002 L 157.800 297.800 157.600 186.400 L 157.400 75.000 142.171 74.895 C 133.796 74.838,126.821 74.913,126.671 75.062 " stroke="none" fill="#4c5464" fill-rule="evenodd"></path><path id="path3" d="M157.600 186.338 L 157.800 297.800 215.662 298.000 C 247.486 298.110,273.440 298.065,273.338 297.900 C 273.236 297.735,247.243 297.600,215.576 297.600 L 158.000 297.600 158.000 186.424 C 158.000 125.277,157.865 75.164,157.700 75.062 C 157.535 74.960,157.490 125.034,157.600 186.338 M126.400 325.108 C 126.400 325.332,126.685 325.624,127.033 325.757 C 127.957 326.112,273.119 326.055,273.338 325.700 C 273.440 325.535,240.665 325.446,200.505 325.502 C 146.765 325.577,127.344 325.485,126.944 325.153 C 126.605 324.872,126.400 324.855,126.400 325.108 " stroke="none" fill="#343444" fill-rule="evenodd"></path><path id="path4" d="M30.100 0.291 C 29.165 0.376,28.400 0.616,28.400 0.823 C 28.400 1.030,27.961 1.200,27.424 1.200 C 26.887 1.200,26.336 1.380,26.200 1.600 C 26.064 1.820,25.513 2.000,24.976 2.000 C 24.439 2.000,24.000 2.180,24.000 2.400 C 24.000 2.620,23.640 2.800,23.200 2.800 C 22.760 2.800,22.400 2.980,22.400 3.200 C 22.400 3.420,22.040 3.600,21.600 3.600 C 21.160 3.600,20.800 3.780,20.800 4.000 C 20.800 4.220,20.440 4.400,20.000 4.400 C 19.560 4.400,19.200 4.580,19.200 4.800 C 19.200 5.020,18.975 5.200,18.700 5.201 C 18.425 5.201,17.570 5.741,16.800 6.400 C 16.030 7.059,15.260 7.599,15.089 7.599 C 14.315 7.601,7.601 14.315,7.599 15.089 C 7.599 15.260,7.059 16.030,6.400 16.800 C 5.741 17.570,5.201 18.425,5.201 18.700 C 5.200 18.975,5.020 19.200,4.800 19.200 C 4.580 19.200,4.400 19.560,4.400 20.000 C 4.400 20.440,4.220 20.800,4.000 20.800 C 3.780 20.800,3.600 21.160,3.600 21.600 C 3.600 22.040,3.420 22.400,3.200 22.400 C 2.980 22.400,2.800 22.760,2.800 23.200 C 2.800 23.640,2.620 24.000,2.400 24.000 C 2.180 24.000,2.000 24.439,2.000 24.976 C 2.000 25.513,1.820 26.064,1.600 26.200 C 1.380 26.336,1.200 26.872,1.200 27.390 C 1.200 27.909,0.975 28.408,0.700 28.500 C -0.036 28.745,-0.036 371.255,0.700 371.500 C 0.975 371.592,1.200 372.091,1.200 372.610 C 1.200 373.128,1.380 373.664,1.600 373.800 C 1.820 373.936,2.000 374.487,2.000 375.024 C 2.000 375.561,2.180 376.000,2.400 376.000 C 2.620 376.000,2.800 376.360,2.800 376.800 C 2.800 377.240,2.980 377.600,3.200 377.600 C 3.420 377.600,3.600 377.960,3.600 378.400 C 3.600 378.840,3.780 379.200,4.000 379.200 C 4.220 379.200,4.400 379.560,4.400 380.000 C 4.400 380.440,4.580 380.800,4.800 380.800 C 5.020 380.800,5.200 381.025,5.201 381.300 C 5.201 381.575,5.741 382.430,6.400 383.200 C 7.059 383.970,7.599 384.740,7.599 384.911 C 7.601 385.685,14.315 392.399,15.089 392.401 C 15.260 392.401,16.030 392.941,16.800 393.600 C 17.570 394.259,18.425 394.799,18.700 394.799 C 18.975 394.800,19.200 394.980,19.200 395.200 C 19.200 395.420,19.560 395.600,20.000 395.600 C 20.440 395.600,20.800 395.780,20.800 396.000 C 20.800 396.220,21.160 396.400,21.600 396.400 C 22.040 396.400,22.400 396.580,22.400 396.800 C 22.400 397.020,22.760 397.200,23.200 397.200 C 23.640 397.200,24.000 397.380,24.000 397.600 C 24.000 397.820,24.439 398.000,24.976 398.000 C 25.513 398.000,26.064 398.180,26.200 398.400 C 26.336 398.620,26.872 398.800,27.390 398.800 C 27.909 398.800,28.408 399.025,28.500 399.300 C 28.745 400.036,371.255 400.036,371.500 399.300 C 371.592 399.025,372.091 398.800,372.610 398.800 C 373.128 398.800,373.664 398.620,373.800 398.400 C 373.936 398.180,374.487 398.000,375.024 398.000 C 375.561 398.000,376.000 397.820,376.000 397.600 C 376.000 397.380,376.360 397.200,376.800 397.200 C 377.240 397.200,377.600 397.020,377.600 396.800 C 377.600 396.580,377.960 396.400,378.400 396.400 C 378.840 396.400,379.200 396.220,379.200 396.000 C 379.200 395.780,379.560 395.600,380.000 395.600 C 380.440 395.600,380.800 395.420,380.800 395.200 C 380.800 394.980,381.025 394.800,381.300 394.799 C 381.575 394.799,382.430 394.259,383.200 393.600 C 383.970 392.941,384.740 392.401,384.911 392.401 C 385.213 392.400,387.268 390.655,388.962 388.962 C 390.655 387.268,392.400 385.213,392.401 384.911 C 392.401 384.740,392.941 383.970,393.600 383.200 C 394.259 382.430,394.799 381.575,394.799 381.300 C 394.800 381.025,394.980 380.800,395.200 380.800 C 395.420 380.800,395.600 380.440,395.600 380.000 C 395.600 379.560,395.780 379.200,396.000 379.200 C 396.220 379.200,396.400 378.840,396.400 378.400 C 396.400 377.960,396.580 377.600,396.800 377.600 C 397.020 377.600,397.200 377.240,397.200 376.800 C 397.200 376.360,397.380 376.000,397.600 376.000 C 397.820 376.000,398.000 375.561,398.000 375.024 C 398.000 374.487,398.180 373.936,398.400 373.800 C 398.620 373.664,398.800 373.128,398.800 372.610 C 398.800 372.091,399.025 371.592,399.300 371.500 C 400.036 371.255,400.036 28.745,399.300 28.500 C 399.025 28.408,398.800 27.909,398.800 27.390 C 398.800 26.872,398.620 26.336,398.400 26.200 C 398.180 26.064,398.000 25.513,398.000 24.976 C 398.000 24.439,397.820 24.000,397.600 24.000 C 397.380 24.000,397.200 23.640,397.200 23.200 C 397.200 22.760,397.020 22.400,396.800 22.400 C 396.580 22.400,396.400 22.040,396.400 21.600 C 396.400 21.160,396.220 20.800,396.000 20.800 C 395.780 20.800,395.600 20.440,395.600 20.000 C 395.600 19.560,395.420 19.200,395.200 19.200 C 394.980 19.200,394.800 18.975,394.799 18.700 C 394.799 18.425,394.259 17.570,393.600 16.800 C 392.941 16.030,392.401 15.260,392.401 15.089 C 392.399 14.315,385.685 7.601,384.911 7.599 C 384.740 7.599,383.970 7.059,383.200 6.400 C 382.430 5.741,381.575 5.201,381.300 5.201 C 381.025 5.200,380.800 5.020,380.800 4.800 C 380.800 4.580,380.440 4.400,380.000 4.400 C 379.560 4.400,379.200 4.220,379.200 4.000 C 379.200 3.780,378.840 3.600,378.400 3.600 C 377.960 3.600,377.600 3.420,377.600 3.200 C 377.600 2.980,377.240 2.800,376.800 2.800 C 376.360 2.800,376.000 2.620,376.000 2.400 C 376.000 2.180,375.561 2.000,375.024 2.000 C 374.487 2.000,373.936 1.820,373.800 1.600 C 373.664 1.380,373.128 1.200,372.610 1.200 C 372.091 1.200,371.592 0.975,371.500 0.700 C 371.343 0.229,35.199 -0.174,30.100 0.291 M157.901 186.299 L 158.001 297.597 215.701 297.699 L 273.400 297.800 273.400 311.800 L 273.400 325.800 200.800 325.909 C 160.870 325.970,127.795 325.921,127.300 325.802 L 126.400 325.585 126.400 200.188 L 126.400 74.791 142.100 74.895 L 157.800 75.000 157.901 186.299 " stroke="none" fill="#141c2c" fill-rule="evenodd"></path></g></svg>